<svg xmlns="http://www.w3.org/2000/svg" xmlns:xlink="http://www.w3.org/1999/xlink" width="500" zoomAndPan="magnify" viewBox="0 0 375 374.999991" height="500" preserveAspectRatio="xMidYMid meet" version="1.0"><defs><g/></defs><g fill="#000000" fill-opacity="1"><g transform="translate(91.526219, 232.837749)"><g><path d="M 16.078125 -9.046875 L 26.734375 -9.046875 C 30.484375 -9.046875 33.40625 -10.613281 35.5 -13.75 C 37.59375 -16.894531 38.640625 -21.195312 38.640625 -26.65625 C 38.640625 -32.289062 37.675781 -36.484375 35.75 -39.234375 C 33.820312 -41.992188 30.890625 -43.375 26.953125 -43.375 L 16.078125 -43.375 Z M 5.34375 -52.390625 L 28.484375 -52.390625 C 35.566406 -52.390625 40.890625 -50.09375 44.453125 -45.5 C 48.015625 -40.90625 49.796875 -34.890625 49.796875 -27.453125 C 49.796875 -19.222656 47.898438 -12.585938 44.109375 -7.546875 C 40.316406 -2.515625 34.960938 0 28.046875 0 L 5.34375 0 Z M 5.34375 -52.390625 "/></g></g></g><g fill="#000000" fill-opacity="1"><g transform="translate(137.299814, 232.837749)"><g><path d="M 19 -19.859375 L 32.359375 -19.859375 L 25.84375 -40.59375 L 25.703125 -40.59375 Z M 12.4375 0 L 0.890625 0 L 19.5625 -52.390625 L 32.21875 -52.390625 L 50.6875 0 L 38.78125 0 L 35.4375 -10.796875 L 16.078125 -10.796875 Z M 12.4375 0 "/></g></g></g><g fill="#000000" fill-opacity="1"><g transform="translate(181.647704, 232.837749)"><g><path d="M 13.96875 -26.203125 C 13.96875 -20.117188 15.320312 -15.539062 18.03125 -12.46875 C 20.738281 -9.40625 24.175781 -7.875 28.34375 -7.875 C 32.5 -7.875 35.890625 -9.453125 38.515625 -12.609375 C 41.140625 -15.773438 42.453125 -20.304688 42.453125 -26.203125 C 42.453125 -32.085938 41.148438 -36.609375 38.546875 -39.765625 C 35.941406 -42.929688 32.488281 -44.515625 28.1875 -44.515625 C 23.894531 -44.515625 20.453125 -42.941406 17.859375 -39.796875 C 15.265625 -36.648438 13.96875 -32.117188 13.96875 -26.203125 Z M 3.03125 -26.203125 C 3.03125 -35.179688 5.367188 -42.019531 10.046875 -46.71875 C 14.734375 -51.425781 20.757812 -53.78125 28.125 -53.78125 C 35.488281 -53.78125 41.539062 -51.457031 46.28125 -46.8125 C 51.019531 -42.164062 53.390625 -35.296875 53.390625 -26.203125 C 53.390625 -17.316406 51.0625 -10.492188 46.40625 -5.734375 C 41.75 -0.984375 35.691406 1.390625 28.234375 1.390625 C 21.128906 1.390625 15.148438 -0.859375 10.296875 -5.359375 C 5.453125 -9.867188 3.03125 -16.816406 3.03125 -26.203125 Z M 3.03125 -26.203125 "/></g></g></g><g fill="#000000" fill-opacity="1"><g transform="translate(230.84299, 232.837749)"><g><path d="M 47.4375 -18.328125 C 47.4375 -11.878906 45.648438 -6.976562 42.078125 -3.625 C 38.503906 -0.28125 33.113281 1.390625 25.90625 1.390625 C 19.59375 1.390625 14.554688 -0.21875 10.796875 -3.4375 C 7.046875 -6.65625 5.171875 -11.425781 5.171875 -17.75 L 5.171875 -52.390625 L 16.359375 -52.390625 L 16.359375 -18.390625 C 16.359375 -14.972656 17.203125 -12.363281 18.890625 -10.5625 C 20.578125 -8.769531 23 -7.875 26.15625 -7.875 C 29.34375 -7.875 31.828125 -8.707031 33.609375 -10.375 C 35.390625 -12.039062 36.28125 -14.546875 36.28125 -17.890625 L 36.28125 -52.390625 L 47.4375 -52.390625 Z M 47.4375 -18.328125 "/></g></g></g><g fill="#000000" fill-opacity="1"><g transform="translate(93.482826, 173.19998)"><g><path d="M 20.90625 -24.3125 C 19.96875 -24.257812 19.238281 -24.050781 18.71875 -23.6875 C 18.195312 -23.332031 17.796875 -22.832031 17.515625 -22.1875 C 17.234375 -21.550781 16.90625 -20.601562 16.53125 -19.34375 L 13.25 -7.765625 C 12.632812 -5.546875 11.894531 -3.894531 11.03125 -2.8125 C 10.257812 -1.851562 9.316406 -1.050781 8.203125 -0.40625 C 7.097656 0.238281 5.929688 0.5625 4.703125 0.5625 C 3.640625 0.5625 2.691406 0.25 1.859375 -0.375 C 1.035156 -1.007812 0.625 -1.859375 0.625 -2.921875 C 0.625 -3.640625 0.832031 -4.242188 1.25 -4.734375 C 1.675781 -5.222656 2.234375 -5.46875 2.921875 -5.46875 C 3.515625 -5.46875 3.96875 -5.28125 4.28125 -4.90625 C 4.601562 -4.539062 4.765625 -4.1875 4.765625 -3.84375 C 4.765625 -3.625 4.71875 -3.425781 4.625 -3.25 C 4.53125 -3.082031 4.367188 -2.863281 4.140625 -2.59375 C 3.847656 -2.25 3.703125 -1.988281 3.703125 -1.8125 C 3.703125 -1.539062 3.8125 -1.285156 4.03125 -1.046875 C 4.25 -0.816406 4.554688 -0.703125 4.953125 -0.703125 C 5.941406 -0.703125 6.753906 -1.207031 7.390625 -2.21875 C 8.035156 -3.226562 8.644531 -4.757812 9.21875 -6.8125 L 12.6875 -18.9375 L 13.0625 -20.28125 C 13.113281 -20.425781 13.210938 -20.765625 13.359375 -21.296875 C 13.503906 -21.828125 13.578125 -22.210938 13.578125 -22.453125 C 13.578125 -23.191406 13.285156 -23.6875 12.703125 -23.9375 C 12.128906 -24.1875 11.300781 -24.3125 10.21875 -24.3125 L 10.390625 -24.96875 L 21.09375 -24.96875 Z M 20.90625 -24.3125 "/></g></g></g><g fill="#000000" fill-opacity="1"><g transform="translate(107.873987, 173.19998)"><g><path d="M 11.90625 -16.90625 C 12.800781 -16.90625 13.640625 -16.671875 14.421875 -16.203125 C 15.210938 -15.734375 15.847656 -15.070312 16.328125 -14.21875 C 16.816406 -13.375 17.0625 -12.410156 17.0625 -11.328125 C 17.0625 -9.148438 16.503906 -7.160156 15.390625 -5.359375 C 14.285156 -3.554688 12.898438 -2.140625 11.234375 -1.109375 C 9.566406 -0.078125 7.976562 0.4375 6.46875 0.4375 C 5.257812 0.4375 4.273438 0.125 3.515625 -0.5 C 2.753906 -1.125 2.195312 -1.878906 1.84375 -2.765625 C 1.5 -3.660156 1.328125 -4.503906 1.328125 -5.296875 C 1.328125 -6.972656 1.84375 -8.722656 2.875 -10.546875 C 3.914062 -12.367188 5.253906 -13.882812 6.890625 -15.09375 C 8.535156 -16.300781 10.207031 -16.90625 11.90625 -16.90625 Z M 4.359375 -3.890625 C 4.359375 -2.898438 4.617188 -2.082031 5.140625 -1.4375 C 5.660156 -0.800781 6.328125 -0.484375 7.140625 -0.484375 C 7.898438 -0.484375 8.617188 -0.707031 9.296875 -1.15625 C 9.984375 -1.613281 10.5625 -2.238281 11.03125 -3.03125 C 11.9375 -4.507812 12.679688 -6.15625 13.265625 -7.96875 C 13.847656 -9.78125 14.140625 -11.289062 14.140625 -12.5 C 14.140625 -14.914062 13.222656 -16.125 11.390625 -16.125 C 10.085938 -16.125 8.898438 -15.398438 7.828125 -13.953125 C 6.753906 -12.515625 5.90625 -10.816406 5.28125 -8.859375 C 4.664062 -6.898438 4.359375 -5.242188 4.359375 -3.890625 Z M 4.359375 -3.890625 "/></g></g></g><g fill="#000000" fill-opacity="1"><g transform="translate(124.115029, 173.19998)"><g><path d="M 5.8125 -8.328125 C 7.363281 -10.890625 8.925781 -12.957031 10.5 -14.53125 C 12.082031 -16.113281 13.550781 -16.90625 14.90625 -16.90625 C 15.476562 -16.90625 15.953125 -16.710938 16.328125 -16.328125 C 16.710938 -15.953125 16.90625 -15.40625 16.90625 -14.6875 C 16.90625 -14.019531 16.734375 -13.054688 16.390625 -11.796875 L 14.0625 -3.8125 C 13.84375 -3.019531 13.734375 -2.476562 13.734375 -2.1875 C 13.734375 -1.957031 13.785156 -1.789062 13.890625 -1.6875 C 14.003906 -1.59375 14.125 -1.546875 14.25 -1.546875 C 14.539062 -1.546875 14.992188 -1.867188 15.609375 -2.515625 C 16.222656 -3.160156 16.644531 -3.664062 16.875 -4.03125 L 17.421875 -3.59375 C 16.660156 -2.53125 15.804688 -1.59375 14.859375 -0.78125 C 13.910156 0.03125 13.015625 0.4375 12.171875 0.4375 C 11.773438 0.4375 11.441406 0.285156 11.171875 -0.015625 C 10.898438 -0.328125 10.765625 -0.742188 10.765625 -1.265625 C 10.765625 -1.804688 10.898438 -2.53125 11.171875 -3.4375 L 13.6875 -12.28125 C 13.71875 -12.351562 13.78125 -12.554688 13.875 -12.890625 C 13.96875 -13.222656 14.015625 -13.550781 14.015625 -13.875 C 14.015625 -14.195312 13.925781 -14.441406 13.75 -14.609375 C 13.582031 -14.785156 13.398438 -14.875 13.203125 -14.875 C 12.640625 -14.875 11.820312 -14.390625 10.75 -13.421875 C 9.675781 -12.460938 8.632812 -11.257812 7.625 -9.8125 C 6.757812 -8.59375 6.0625 -7.472656 5.53125 -6.453125 C 5 -5.429688 4.523438 -4.191406 4.109375 -2.734375 C 3.785156 -1.671875 3.523438 -0.757812 3.328125 0 L 0.484375 0 L 4 -12.328125 C 4.019531 -12.398438 4.101562 -12.710938 4.25 -13.265625 C 4.40625 -13.816406 4.484375 -14.21875 4.484375 -14.46875 C 4.484375 -14.757812 4.375 -14.984375 4.15625 -15.140625 C 3.945312 -15.304688 3.671875 -15.390625 3.328125 -15.390625 C 2.984375 -15.390625 2.488281 -15.363281 1.84375 -15.3125 L 1.84375 -15.984375 L 7.515625 -16.90625 L 8.171875 -16.90625 L 5.734375 -8.40625 Z M 5.8125 -8.328125 "/></g></g></g><g fill="#000000" fill-opacity="1"><g transform="translate(140.356071, 173.19998)"><g><path d="M 11.5 -16.90625 C 12.164062 -16.90625 12.769531 -16.675781 13.3125 -16.21875 C 13.863281 -15.769531 14.195312 -15.132812 14.3125 -14.3125 L 14.390625 -14.3125 L 14.984375 -16.5 L 17.90625 -16.90625 L 14.09375 -3.546875 C 14.070312 -3.503906 14.007812 -3.320312 13.90625 -3 C 13.8125 -2.675781 13.765625 -2.351562 13.765625 -2.03125 C 13.765625 -1.832031 13.8125 -1.675781 13.90625 -1.5625 C 14.007812 -1.457031 14.125 -1.40625 14.25 -1.40625 C 14.5625 -1.40625 14.960938 -1.625 15.453125 -2.0625 C 15.953125 -2.507812 16.425781 -3.128906 16.875 -3.921875 L 17.421875 -3.546875 C 16.753906 -2.316406 15.910156 -1.34375 14.890625 -0.625 C 13.867188 0.0820312 12.960938 0.4375 12.171875 0.4375 C 11.722656 0.4375 11.390625 0.28125 11.171875 -0.03125 C 10.953125 -0.351562 10.84375 -0.75 10.84375 -1.21875 C 10.84375 -1.539062 10.910156 -2.066406 11.046875 -2.796875 C 11.179688 -3.523438 11.394531 -4.257812 11.6875 -5 L 11.625 -5.0625 C 8.851562 -1.394531 6.347656 0.4375 4.109375 0.4375 C 3.117188 0.4375 2.332031 0.015625 1.75 -0.828125 C 1.175781 -1.679688 0.890625 -2.664062 0.890625 -3.78125 C 0.890625 -5.695312 1.445312 -7.6875 2.5625 -9.75 C 3.6875 -11.8125 5.082031 -13.519531 6.75 -14.875 C 8.414062 -16.226562 10 -16.90625 11.5 -16.90625 Z M 3.84375 -4.484375 C 3.84375 -3.515625 4.066406 -2.804688 4.515625 -2.359375 C 4.960938 -1.921875 5.476562 -1.703125 6.0625 -1.703125 C 6.832031 -1.703125 7.660156 -2.046875 8.546875 -2.734375 C 9.429688 -3.429688 10.25 -4.316406 11 -5.390625 C 11.757812 -6.460938 12.320312 -7.550781 12.6875 -8.65625 C 13.0625 -9.738281 13.332031 -10.628906 13.5 -11.328125 C 13.675781 -12.035156 13.765625 -12.722656 13.765625 -13.390625 C 13.765625 -14.359375 13.539062 -15.066406 13.09375 -15.515625 C 12.65625 -15.972656 12.140625 -16.203125 11.546875 -16.203125 C 10.390625 -16.203125 9.210938 -15.492188 8.015625 -14.078125 C 6.816406 -12.660156 5.820312 -11 5.03125 -9.09375 C 4.238281 -7.195312 3.84375 -5.660156 3.84375 -4.484375 Z M 3.84375 -4.484375 "/></g></g></g><g fill="#000000" fill-opacity="1"><g transform="translate(156.597113, 173.19998)"><g><path d="M 8.734375 -16.90625 C 9.617188 -16.90625 10.457031 -16.695312 11.25 -16.28125 C 11.6875 -16.082031 11.992188 -15.984375 12.171875 -15.984375 C 12.640625 -15.984375 13.019531 -16.289062 13.3125 -16.90625 L 13.984375 -16.90625 L 12.984375 -11.28125 L 12.328125 -11.28125 C 12.328125 -12.882812 12.007812 -14.09375 11.375 -14.90625 C 10.75 -15.71875 9.976562 -16.125 9.0625 -16.125 C 8.394531 -16.125 7.84375 -15.914062 7.40625 -15.5 C 6.976562 -15.082031 6.765625 -14.613281 6.765625 -14.09375 C 6.765625 -13.5 6.9375 -12.898438 7.28125 -12.296875 C 7.632812 -11.691406 8.179688 -10.898438 8.921875 -9.921875 C 9.753906 -8.828125 10.390625 -7.875 10.828125 -7.0625 C 11.273438 -6.25 11.5 -5.398438 11.5 -4.515625 C 11.5 -3.671875 11.269531 -2.875 10.8125 -2.125 C 10.363281 -1.375 9.71875 -0.757812 8.875 -0.28125 C 8.039062 0.195312 7.066406 0.4375 5.953125 0.4375 C 5.316406 0.4375 4.539062 0.28125 3.625 -0.03125 C 2.976562 -0.226562 2.5625 -0.328125 2.375 -0.328125 C 1.90625 -0.328125 1.484375 -0.0703125 1.109375 0.4375 L 0.328125 0.4375 L 1.40625 -5.46875 L 2.140625 -5.46875 C 2.242188 -3.988281 2.546875 -2.757812 3.046875 -1.78125 C 3.554688 -0.8125 4.503906 -0.328125 5.890625 -0.328125 C 6.847656 -0.328125 7.597656 -0.65625 8.140625 -1.3125 C 8.679688 -1.96875 8.953125 -2.648438 8.953125 -3.359375 C 8.953125 -3.878906 8.800781 -4.414062 8.5 -4.96875 C 8.207031 -5.53125 7.875 -6.082031 7.5 -6.625 C 7.132812 -7.164062 6.890625 -7.523438 6.765625 -7.703125 L 6.21875 -8.515625 C 5.570312 -9.398438 5.09375 -10.160156 4.78125 -10.796875 C 4.476562 -11.441406 4.328125 -12.132812 4.328125 -12.875 C 4.328125 -13.757812 4.5625 -14.503906 5.03125 -15.109375 C 5.5 -15.710938 6.078125 -16.160156 6.765625 -16.453125 C 7.460938 -16.753906 8.117188 -16.90625 8.734375 -16.90625 Z M 8.734375 -16.90625 "/></g></g></g><g fill="#000000" fill-opacity="1"><g transform="translate(168.583608, 173.19998)"><g/></g></g><g fill="#000000" fill-opacity="1"><g transform="translate(175.575628, 173.19998)"><g><path d="M 5.109375 -3.78125 L 21.828125 -25.5 L 22.5 -25.5 L 20.796875 -4.65625 C 20.742188 -3.875 20.71875 -3.359375 20.71875 -3.109375 C 20.71875 -1.484375 21.617188 -0.671875 23.421875 -0.671875 L 24.15625 -0.671875 L 23.96875 0 L 13.546875 0 L 13.734375 -0.671875 C 14.515625 -0.671875 15.132812 -0.738281 15.59375 -0.875 C 16.050781 -1.007812 16.410156 -1.289062 16.671875 -1.71875 C 16.929688 -2.15625 17.097656 -2.789062 17.171875 -3.625 L 17.53125 -8.140625 L 10.09375 -8.140625 L 7.40625 -4.703125 C 6.863281 -4.035156 6.492188 -3.503906 6.296875 -3.109375 C 6.097656 -2.710938 6 -2.34375 6 -2 C 6 -1.15625 6.648438 -0.710938 7.953125 -0.671875 L 7.765625 0 L 0.515625 0 L 0.4375 -0.671875 C 1.96875 -0.691406 3.523438 -1.726562 5.109375 -3.78125 Z M 17.609375 -9.390625 L 18.421875 -18.9375 L 18.359375 -19.015625 L 11.03125 -9.390625 Z M 17.609375 -9.390625 "/></g></g></g><g fill="#000000" fill-opacity="1"><g transform="translate(199.9188, 173.19998)"><g><path d="M 10.921875 -26.53125 L 5.65625 -8.21875 L 5.734375 -8.140625 L 11.65625 -12.734375 C 11.78125 -12.828125 12.066406 -13.050781 12.515625 -13.40625 C 12.972656 -13.769531 13.34375 -14.101562 13.625 -14.40625 C 13.914062 -14.71875 14.0625 -14.984375 14.0625 -15.203125 C 14.0625 -15.628906 13.566406 -15.84375 12.578125 -15.84375 L 12.765625 -16.5 L 20.09375 -16.5 L 19.90625 -15.84375 C 18.644531 -15.8125 17.347656 -15.421875 16.015625 -14.671875 C 14.679688 -13.921875 12.769531 -12.570312 10.28125 -10.625 L 12.609375 -4.21875 C 12.960938 -3.257812 13.257812 -2.5625 13.5 -2.125 C 13.75 -1.695312 14.0625 -1.484375 14.4375 -1.484375 C 14.820312 -1.484375 15.316406 -1.726562 15.921875 -2.21875 C 16.523438 -2.707031 17.160156 -3.375 17.828125 -4.21875 L 18.390625 -3.84375 C 16.023438 -0.988281 14.175781 0.4375 12.84375 0.4375 C 12.414062 0.4375 12.015625 0.269531 11.640625 -0.0625 C 11.273438 -0.394531 10.910156 -1.066406 10.546875 -2.078125 L 8.03125 -8.921875 L 5.25 -6.765625 L 3.328125 0 L 0.515625 0 L 7.0625 -22.859375 C 7.238281 -23.429688 7.328125 -23.851562 7.328125 -24.125 C 7.328125 -24.445312 7.210938 -24.695312 6.984375 -24.875 C 6.765625 -25.0625 6.457031 -25.15625 6.0625 -25.15625 C 5.75 -25.15625 5.460938 -25.128906 5.203125 -25.078125 C 4.941406 -25.035156 4.757812 -25 4.65625 -24.96875 L 4.65625 -25.671875 L 10.25 -26.53125 Z M 10.921875 -26.53125 "/></g></g></g><g fill="#000000" fill-opacity="1"><g transform="translate(217.306723, 173.19998)"><g><path d="M 5.140625 -4.140625 C 4.972656 -3.546875 4.84375 -3.070312 4.75 -2.71875 C 4.664062 -2.363281 4.625 -2.0625 4.625 -1.8125 C 4.625 -1.632812 4.664062 -1.503906 4.75 -1.421875 C 4.84375 -1.335938 4.925781 -1.296875 5 -1.296875 C 5.289062 -1.296875 5.789062 -1.648438 6.5 -2.359375 C 7.21875 -3.078125 7.664062 -3.585938 7.84375 -3.890625 L 8.4375 -3.546875 C 7.644531 -2.460938 6.78125 -1.523438 5.84375 -0.734375 C 4.90625 0.046875 4.03125 0.4375 3.21875 0.4375 C 2.226562 0.4375 1.734375 -0.140625 1.734375 -1.296875 C 1.734375 -1.765625 1.832031 -2.34375 2.03125 -3.03125 C 2.226562 -3.71875 2.363281 -4.175781 2.4375 -4.40625 L 7.703125 -22.6875 C 7.847656 -23.25 7.921875 -23.691406 7.921875 -24.015625 C 7.921875 -24.335938 7.804688 -24.597656 7.578125 -24.796875 C 7.359375 -24.992188 7.078125 -25.09375 6.734375 -25.09375 C 6.265625 -25.09375 5.84375 -25.050781 5.46875 -24.96875 L 5.46875 -25.671875 L 10.921875 -26.53125 L 11.546875 -26.53125 L 5.625 -5.8125 C 5.375 -4.925781 5.210938 -4.367188 5.140625 -4.140625 Z M 5.140625 -4.140625 "/></g></g></g><g fill="#000000" fill-opacity="1"><g transform="translate(225.075658, 173.19998)"><g><path d="M 11.984375 -16.90625 C 13.023438 -16.90625 13.894531 -16.644531 14.59375 -16.125 C 15.300781 -15.613281 15.65625 -14.953125 15.65625 -14.140625 C 15.65625 -13.347656 15.285156 -12.445312 14.546875 -11.4375 C 13.804688 -10.425781 12.601562 -9.53125 10.9375 -8.75 C 9.269531 -7.96875 7.15625 -7.539062 4.59375 -7.46875 C 4.4375 -6.976562 4.359375 -6.375 4.359375 -5.65625 C 4.359375 -4.15625 4.765625 -3.066406 5.578125 -2.390625 C 6.398438 -1.710938 7.300781 -1.375 8.28125 -1.375 C 9.9375 -1.375 11.613281 -2.195312 13.3125 -3.84375 L 13.796875 -3.40625 C 11.160156 -0.84375 8.609375 0.4375 6.140625 0.4375 C 5.128906 0.4375 4.25 0.1875 3.5 -0.3125 C 2.75 -0.820312 2.179688 -1.484375 1.796875 -2.296875 C 1.410156 -3.109375 1.21875 -3.945312 1.21875 -4.8125 C 1.21875 -6.539062 1.71875 -8.351562 2.71875 -10.25 C 3.71875 -12.144531 5.050781 -13.726562 6.71875 -15 C 8.382812 -16.269531 10.140625 -16.90625 11.984375 -16.90625 Z M 4.8125 -8.171875 C 6.488281 -8.296875 7.84375 -8.582031 8.875 -9.03125 C 9.882812 -9.46875 10.703125 -10.035156 11.328125 -10.734375 C 11.960938 -11.441406 12.414062 -12.132812 12.6875 -12.8125 C 12.957031 -13.5 13.09375 -14.0625 13.09375 -14.5 C 13.09375 -14.925781 12.9375 -15.316406 12.625 -15.671875 C 12.320312 -16.023438 11.890625 -16.203125 11.328125 -16.203125 C 10.335938 -16.203125 9.378906 -15.742188 8.453125 -14.828125 C 7.523438 -13.921875 6.734375 -12.835938 6.078125 -11.578125 C 5.429688 -10.316406 5.007812 -9.179688 4.8125 -8.171875 Z M 4.8125 -8.171875 "/></g></g></g><g fill="#000000" fill-opacity="1"><g transform="translate(239.022939, 173.19998)"><g><path d="M 8.734375 -16.90625 C 9.617188 -16.90625 10.457031 -16.695312 11.25 -16.28125 C 11.6875 -16.082031 11.992188 -15.984375 12.171875 -15.984375 C 12.640625 -15.984375 13.019531 -16.289062 13.3125 -16.90625 L 13.984375 -16.90625 L 12.984375 -11.28125 L 12.328125 -11.28125 C 12.328125 -12.882812 12.007812 -14.09375 11.375 -14.90625 C 10.75 -15.71875 9.976562 -16.125 9.0625 -16.125 C 8.394531 -16.125 7.84375 -15.914062 7.40625 -15.5 C 6.976562 -15.082031 6.765625 -14.613281 6.765625 -14.09375 C 6.765625 -13.5 6.9375 -12.898438 7.28125 -12.296875 C 7.632812 -11.691406 8.179688 -10.898438 8.921875 -9.921875 C 9.753906 -8.828125 10.390625 -7.875 10.828125 -7.0625 C 11.273438 -6.25 11.5 -5.398438 11.5 -4.515625 C 11.5 -3.671875 11.269531 -2.875 10.8125 -2.125 C 10.363281 -1.375 9.71875 -0.757812 8.875 -0.28125 C 8.039062 0.195312 7.066406 0.4375 5.953125 0.4375 C 5.316406 0.4375 4.539062 0.28125 3.625 -0.03125 C 2.976562 -0.226562 2.5625 -0.328125 2.375 -0.328125 C 1.90625 -0.328125 1.484375 -0.0703125 1.109375 0.4375 L 0.328125 0.4375 L 1.40625 -5.46875 L 2.140625 -5.46875 C 2.242188 -3.988281 2.546875 -2.757812 3.046875 -1.78125 C 3.554688 -0.8125 4.503906 -0.328125 5.890625 -0.328125 C 6.847656 -0.328125 7.597656 -0.65625 8.140625 -1.3125 C 8.679688 -1.96875 8.953125 -2.648438 8.953125 -3.359375 C 8.953125 -3.878906 8.800781 -4.414062 8.5 -4.96875 C 8.207031 -5.53125 7.875 -6.082031 7.5 -6.625 C 7.132812 -7.164062 6.890625 -7.523438 6.765625 -7.703125 L 6.21875 -8.515625 C 5.570312 -9.398438 5.09375 -10.160156 4.78125 -10.796875 C 4.476562 -11.441406 4.328125 -12.132812 4.328125 -12.875 C 4.328125 -13.757812 4.5625 -14.503906 5.03125 -15.109375 C 5.5 -15.710938 6.078125 -16.160156 6.765625 -16.453125 C 7.460938 -16.753906 8.117188 -16.90625 8.734375 -16.90625 Z M 8.734375 -16.90625 "/></g></g></g><g fill="#000000" fill-opacity="1"><g transform="translate(251.009434, 173.19998)"><g><path d="M 8.734375 -16.90625 C 9.617188 -16.90625 10.457031 -16.695312 11.25 -16.28125 C 11.6875 -16.082031 11.992188 -15.984375 12.171875 -15.984375 C 12.640625 -15.984375 13.019531 -16.289062 13.3125 -16.90625 L 13.984375 -16.90625 L 12.984375 -11.28125 L 12.328125 -11.28125 C 12.328125 -12.882812 12.007812 -14.09375 11.375 -14.90625 C 10.75 -15.71875 9.976562 -16.125 9.0625 -16.125 C 8.394531 -16.125 7.84375 -15.914062 7.40625 -15.5 C 6.976562 -15.082031 6.765625 -14.613281 6.765625 -14.09375 C 6.765625 -13.5 6.9375 -12.898438 7.28125 -12.296875 C 7.632812 -11.691406 8.179688 -10.898438 8.921875 -9.921875 C 9.753906 -8.828125 10.390625 -7.875 10.828125 -7.0625 C 11.273438 -6.25 11.5 -5.398438 11.5 -4.515625 C 11.5 -3.671875 11.269531 -2.875 10.8125 -2.125 C 10.363281 -1.375 9.71875 -0.757812 8.875 -0.28125 C 8.039062 0.195312 7.066406 0.4375 5.953125 0.4375 C 5.316406 0.4375 4.539062 0.28125 3.625 -0.03125 C 2.976562 -0.226562 2.5625 -0.328125 2.375 -0.328125 C 1.90625 -0.328125 1.484375 -0.0703125 1.109375 0.4375 L 0.328125 0.4375 L 1.40625 -5.46875 L 2.140625 -5.46875 C 2.242188 -3.988281 2.546875 -2.757812 3.046875 -1.78125 C 3.554688 -0.8125 4.503906 -0.328125 5.890625 -0.328125 C 6.847656 -0.328125 7.597656 -0.65625 8.140625 -1.3125 C 8.679688 -1.96875 8.953125 -2.648438 8.953125 -3.359375 C 8.953125 -3.878906 8.800781 -4.414062 8.5 -4.96875 C 8.207031 -5.53125 7.875 -6.082031 7.5 -6.625 C 7.132812 -7.164062 6.890625 -7.523438 6.765625 -7.703125 L 6.21875 -8.515625 C 5.570312 -9.398438 5.09375 -10.160156 4.78125 -10.796875 C 4.476562 -11.441406 4.328125 -12.132812 4.328125 -12.875 C 4.328125 -13.757812 4.5625 -14.503906 5.03125 -15.109375 C 5.5 -15.710938 6.078125 -16.160156 6.765625 -16.453125 C 7.460938 -16.753906 8.117188 -16.90625 8.734375 -16.90625 Z M 8.734375 -16.90625 "/></g></g></g><g fill="#000000" fill-opacity="1"><g transform="translate(262.995929, 173.19998)"><g><path d="M 11.90625 -16.90625 C 12.800781 -16.90625 13.640625 -16.671875 14.421875 -16.203125 C 15.210938 -15.734375 15.847656 -15.070312 16.328125 -14.21875 C 16.816406 -13.375 17.0625 -12.410156 17.0625 -11.328125 C 17.0625 -9.148438 16.503906 -7.160156 15.390625 -5.359375 C 14.285156 -3.554688 12.898438 -2.140625 11.234375 -1.109375 C 9.566406 -0.078125 7.976562 0.4375 6.46875 0.4375 C 5.257812 0.4375 4.273438 0.125 3.515625 -0.5 C 2.753906 -1.125 2.195312 -1.878906 1.84375 -2.765625 C 1.5 -3.660156 1.328125 -4.503906 1.328125 -5.296875 C 1.328125 -6.972656 1.84375 -8.722656 2.875 -10.546875 C 3.914062 -12.367188 5.253906 -13.882812 6.890625 -15.09375 C 8.535156 -16.300781 10.207031 -16.90625 11.90625 -16.90625 Z M 4.359375 -3.890625 C 4.359375 -2.898438 4.617188 -2.082031 5.140625 -1.4375 C 5.660156 -0.800781 6.328125 -0.484375 7.140625 -0.484375 C 7.898438 -0.484375 8.617188 -0.707031 9.296875 -1.15625 C 9.984375 -1.613281 10.5625 -2.238281 11.03125 -3.03125 C 11.9375 -4.507812 12.679688 -6.15625 13.265625 -7.96875 C 13.847656 -9.78125 14.140625 -11.289062 14.140625 -12.5 C 14.140625 -14.914062 13.222656 -16.125 11.390625 -16.125 C 10.085938 -16.125 8.898438 -15.398438 7.828125 -13.953125 C 6.753906 -12.515625 5.90625 -10.816406 5.28125 -8.859375 C 4.664062 -6.898438 4.359375 -5.242188 4.359375 -3.890625 Z M 4.359375 -3.890625 "/></g></g></g></svg>